<svg width="32" height="32" viewBox="0 0 32 32" fill="none" xmlns="http://www.w3.org/2000/svg">
<path fill-rule="evenodd" clip-rule="evenodd" d="M17.4125 0.5C11.4218 0.5 6.63374 5.48323 6.87294 11.4692L7.05965 16.1417C7.14951 18.3906 6.7615 20.633 5.92122 22.721L4.15307 27.1146C3.44416 28.8761 5.33515 30.5548 7.00024 29.6421C7.60557 29.3103 8.33837 29.3103 8.9437 29.6421L10.9369 30.7346C12.7838 31.7471 15.0197 31.7471 16.8667 30.7346L18.3783 29.906C19.2836 29.4098 20.3795 29.4098 21.2848 29.906C23.2996 31.0104 25.7614 29.5525 25.7614 27.2549V24.6936C25.7614 23.9755 25.8288 23.2589 25.9629 22.5534L27.7751 13.0173C29.0101 6.51854 24.0276 0.5 17.4125 0.5ZM14.795 15.2905C14.1898 15.1065 13.5788 15.5594 13.5788 16.192C13.5788 16.7123 14.0006 17.1341 14.5209 17.1341H15.008C15.2679 17.1341 15.5151 17.2466 15.6859 17.4424C15.9146 17.7047 16.274 17.8115 16.6088 17.7168L16.712 17.6876C17.052 17.5913 17.4175 17.6694 17.6886 17.896L17.81 17.9975C18.2258 18.3452 18.8373 18.3218 19.2254 17.9433C19.4865 17.6886 19.8605 17.5866 20.2147 17.6735L20.4795 17.7384C20.8139 17.8204 21.166 17.709 21.3922 17.4495C21.567 17.2491 21.8199 17.1341 22.0858 17.1341H22.579C23.0908 17.1341 23.5056 16.7193 23.5056 16.2076C23.5056 15.5748 22.8853 15.1282 22.2852 15.3289L21.8577 15.4719C21.7369 15.5123 21.6045 15.4974 21.4958 15.4313C20.9576 15.104 20.3126 15.0007 19.6992 15.1434L18.7171 15.3719C18.602 15.3987 18.4823 15.3987 18.3672 15.3719L17.2678 15.1161C16.7352 14.9922 16.1751 15.1088 15.7362 15.435C15.6511 15.4982 15.541 15.5174 15.4396 15.4865L14.795 15.2905ZM22.4462 11.5885C22.4462 12.6654 22.2199 12.5816 21.8947 12.4612C21.7771 12.4177 21.6466 12.3693 21.5092 12.3693C21.3717 12.3693 21.2412 12.4177 21.1237 12.4612C20.7984 12.5816 20.5721 12.6654 20.5721 11.5885C20.5721 10.1222 20.9916 8.93348 21.5092 8.93348C22.0267 8.93348 22.4462 10.1222 22.4462 11.5885ZM15.96 12.4612C16.2852 12.5816 16.5115 12.6654 16.5115 11.5885C16.5115 10.1222 16.092 8.93348 15.5745 8.93348C15.057 8.93348 14.6374 10.1222 14.6374 11.5885C14.6374 12.6654 14.8638 12.5816 15.189 12.4612C15.3066 12.4177 15.4371 12.3693 15.5745 12.3693C15.7119 12.3693 15.8424 12.4177 15.96 12.4612Z" fill="white"/>
</svg>
