<svg width="200" height="200" viewBox="0 0 200 200" fill="none" xmlns="http://www.w3.org/2000/svg">
<path fill-rule="evenodd" clip-rule="evenodd" d="M108.955 2.14307C71.4564 2.14307 41.4857 33.3352 42.9829 70.8038L44.1516 100.051C44.7141 114.128 42.2854 128.164 37.0258 141.234L25.9581 168.735C21.5208 179.761 33.3573 190.269 43.7798 184.556C47.5688 182.479 52.1557 182.479 55.9448 184.556L74.0013 194.454C82.0859 198.885 91.8729 198.885 99.9576 194.454L115 186.208C120.667 183.102 127.526 183.102 133.193 186.208C145.805 193.121 161.214 183.995 161.214 169.613V153.581C161.214 149.086 161.636 144.601 162.475 140.185L173.819 80.4939C181.549 39.8157 150.361 2.14307 108.955 2.14307ZM99.8627 77.0134C101.899 77.7672 103.315 78.2918 103.315 71.5505C103.315 62.3723 100.689 54.9318 97.4497 54.9318C94.2103 54.9318 91.5843 62.3723 91.5843 71.5505C91.5843 78.2918 93.0009 77.7672 95.0367 77.0134L95.0368 77.0134C95.7728 76.7409 96.5896 76.4384 97.4497 76.4384C98.3098 76.4384 99.1267 76.7409 99.8627 77.0134ZM140.463 71.5505C140.463 78.2918 139.046 77.7672 137.01 77.0134C136.274 76.7409 135.457 76.4384 134.597 76.4384C133.737 76.4384 132.92 76.7409 132.184 77.0134L132.184 77.0134C130.149 77.7672 128.732 78.2918 128.732 71.5505C128.732 62.3723 131.358 54.9318 134.597 54.9318C137.837 54.9318 140.463 62.3723 140.463 71.5505ZM96.0744 95.9879C92.8659 95.0156 89.6292 97.4168 89.6292 100.769C89.6292 103.529 91.8661 105.766 94.6254 105.766H97.2329C98.6132 105.766 99.9263 106.361 100.835 107.4C102.051 108.79 103.959 109.356 105.737 108.855L106.291 108.699C108.1 108.189 110.043 108.603 111.487 109.805L112.132 110.343C114.344 112.187 117.591 112.062 119.656 110.055C121.045 108.704 123.032 108.163 124.914 108.623L126.332 108.97C128.107 109.404 129.976 108.813 131.179 107.438C132.109 106.375 133.452 105.766 134.864 105.766H137.504C140.218 105.766 142.418 103.566 142.418 100.852C142.418 97.4982 139.132 95.13 135.951 96.1906L133.654 96.9561C133.012 97.1701 132.309 97.0913 131.73 96.7406C128.868 95.0058 125.441 94.458 122.18 95.2141L116.954 96.426C116.342 96.5679 115.705 96.5679 115.094 96.426L109.242 95.0692C106.412 94.4129 103.437 95.0311 101.102 96.7604C100.649 97.0957 100.065 97.1971 99.5255 97.0337L96.0744 95.9879Z" fill="white"/>
</svg>
