<svg width="200" height="200" viewBox="0 0 200 200" fill="none" xmlns="http://www.w3.org/2000/svg">
<path fill-rule="evenodd" clip-rule="evenodd" d="M108.639 3C71.2817 3 41.4237 34.0749 42.9153 71.4025L44.0796 100.54C44.64 114.564 42.2204 128.547 36.9805 141.568L25.9545 168.966C21.5339 179.95 33.3259 190.418 43.7092 184.727C47.4839 182.658 52.0536 182.658 55.8284 184.727L73.7682 194.56C81.8528 198.992 91.6398 198.992 99.7244 194.56L114.662 186.373C120.307 183.278 127.141 183.278 132.786 186.373C145.35 193.26 160.701 184.168 160.701 169.84V153.869C160.701 149.39 161.122 144.922 161.958 140.522L173.259 81.0561C180.96 40.5309 149.89 3 108.639 3ZM92.3165 95.2321C88.5423 94.0845 84.732 96.9085 84.732 100.853C84.732 104.098 87.3625 106.729 90.6073 106.729H93.6445C95.2653 106.729 96.8068 107.43 97.872 108.651C99.2981 110.286 101.539 110.953 103.627 110.362L104.27 110.18C106.391 109.58 108.67 110.066 110.36 111.48L111.117 112.113C113.711 114.281 117.524 114.135 119.944 111.774C121.572 110.186 123.904 109.55 126.113 110.092L127.764 110.497C129.849 111.008 132.045 110.313 133.456 108.695C134.546 107.446 136.123 106.729 137.781 106.729H140.857C144.048 106.729 146.635 104.142 146.635 100.951C146.635 97.0047 142.766 94.2197 139.024 95.4714L136.358 96.363C135.605 96.6148 134.78 96.5221 134.101 96.1096C130.746 94.0689 126.724 93.4244 122.898 94.3145L116.774 95.7394C116.056 95.9064 115.31 95.9064 114.592 95.7394L107.736 94.1442C104.415 93.3715 100.922 94.0988 98.1856 96.1329C97.6549 96.5273 96.9685 96.6465 96.3359 96.4542L92.3165 95.2321ZM140.028 72.1463C140.028 78.8622 138.617 78.3396 136.589 77.5886C135.856 77.3171 135.042 77.0158 134.185 77.0158C133.328 77.0158 132.514 77.3171 131.781 77.5886C129.753 78.3396 128.342 78.8622 128.342 72.1463C128.342 63.0026 130.958 55.5901 134.185 55.5901C137.412 55.5901 140.028 63.0026 140.028 72.1463ZM99.581 77.5886C101.609 78.3396 103.02 78.8622 103.02 72.1463C103.02 63.0026 100.404 55.5901 97.1771 55.5901C93.9499 55.5901 91.3338 63.0026 91.3338 72.1463C91.3338 78.8622 92.7451 78.3396 94.7732 77.5886C95.5064 77.3171 96.3202 77.0158 97.1771 77.0158C98.034 77.0158 98.8478 77.3171 99.581 77.5886Z" fill="url(#paint0_linear_30_2)"/>
<defs>
<linearGradient id="paint0_linear_30_2" x1="98.4123" y1="3" x2="98.4123" y2="197.884" gradientUnits="userSpaceOnUse">
<stop stop-color="white"/>
<stop offset="1" stop-color="white"/>
</linearGradient>
</defs>
</svg>
