<svg width="200" height="200" viewBox="0 0 200 200" fill="none" xmlns="http://www.w3.org/2000/svg">
<path fill-rule="evenodd" clip-rule="evenodd" d="M108.639 2.99988C71.2817 2.99988 41.4237 34.0747 42.9153 71.4023L44.0796 100.54C44.64 114.564 42.2204 128.547 36.9805 141.568L25.9545 168.965C21.5339 179.95 33.3259 190.418 43.7092 184.727C47.4839 182.657 52.0536 182.657 55.8284 184.727L73.7682 194.56C81.8528 198.992 91.6398 198.992 99.7244 194.56L114.662 186.372C120.307 183.278 127.141 183.278 132.786 186.372C145.35 193.26 160.701 184.168 160.701 169.84V153.869C160.701 149.39 161.122 144.922 161.958 140.522L173.259 81.056C180.96 40.5308 149.89 2.99988 108.639 2.99988ZM92.3165 95.2319C88.5423 94.0844 84.732 96.9084 84.732 100.853C84.732 104.098 87.3625 106.728 90.6073 106.728H93.6445C95.2653 106.728 96.8068 107.429 97.872 108.651C99.2981 110.286 101.539 110.952 103.627 110.362L104.27 110.18C106.391 109.58 108.67 110.066 110.36 111.479L111.117 112.112C113.711 114.281 117.524 114.135 119.944 111.774C121.572 110.186 123.904 109.55 126.113 110.092L127.764 110.497C129.849 111.008 132.045 110.313 133.456 108.695C134.546 107.446 136.123 106.728 137.781 106.728H140.857C144.048 106.728 146.635 104.142 146.635 100.951C146.635 97.0045 142.766 94.2196 139.024 95.4712L136.358 96.3628C135.605 96.6146 134.78 96.522 134.102 96.1095C130.746 94.0688 126.724 93.4243 122.898 94.3144L116.774 95.7393C116.056 95.9063 115.31 95.9063 114.592 95.7393L107.736 94.1441C104.415 93.3714 100.922 94.0987 98.1856 96.1327C97.6549 96.5272 96.9685 96.6464 96.3359 96.4541L92.3165 95.2319ZM140.028 72.1462C140.028 78.8621 138.617 78.3395 136.589 77.5885C135.856 77.317 135.042 77.0157 134.185 77.0157C133.328 77.0157 132.514 77.317 131.781 77.5885C129.753 78.3395 128.342 78.8621 128.342 72.1462C128.342 63.0025 130.958 55.59 134.185 55.59C137.412 55.59 140.028 63.0025 140.028 72.1462ZM99.581 77.5885C101.609 78.3395 103.02 78.8621 103.02 72.1462C103.02 63.0025 100.404 55.59 97.1771 55.59C93.9499 55.59 91.3338 63.0025 91.3338 72.1462C91.3338 78.8621 92.7451 78.3395 94.7732 77.5885C95.5064 77.317 96.3202 77.0157 97.1771 77.0157C98.034 77.0157 98.8478 77.317 99.581 77.5885Z" fill="black"/>
</svg>
